<?xml version="1.0" encoding="UTF-8"?>
<svg width="16px" height="16px" viewBox="0 0 16 16" xmlns="http://www.w3.org/2000/svg">
    <path d="m 7 0 c -0.554688 0 -1 0.445312 -1 1 h -2 c -1.644531 0 -3 1.355469 -3 3 v 9 c 0 1.644531 1.355469 3 3 3 h 8 c 1.644531 0 3 -1.355469 3 -3 v -9 c 0 -1.644531 -1.355469 -3 -3 -3 h -2 c 0 -0.554688 -0.445312 -1 -1 -1 z m -3 3 h 1 v 1 c 0 0.554688 0.445312 1 1 1 h 4 c 0.554688 0 1 -0.445312 1 -1 v -1 h 1 c 0.570312 0 1 0.429688 1 1 v 9 c 0 0.570312 -0.429688 1 -1 1 h -8 c -0.570312 0 -1 -0.429688 -1 -1 v -9 c 0 -0.570312 0.429688 -1 1 -1 z m 0 0" fill="currentColor"></path>
    <rect x="4.44" y="6.13" width="7.13" height="0.9" fill="currentColor"></rect>
    <rect x="4.44" y="8" width="7.13" height="0.9" fill="currentColor"></rect>
    <rect x="4.44" y="9.94" width="7.13" height="0.9" fill="currentColor"></rect>
    <rect x="4.44" y="12" width="7.13" height="0.9" fill="currentColor"></rect>
</svg>
